<svg width="512" height="512" viewBox="0 0 512 512" fill="none" xmlns="http://www.w3.org/2000/svg">
<path d="M313.484 232.102H439.667V466.44H151.25V399.124H335.172V363.071H151.25V345.046H237.155V308.993H151.25V290.968H270.954V254.915H151.25V105.919H313.484V232.102ZM439.667 206.049H339.537V105.919L439.667 206.049Z" fill="#2B7FFF"/>
<path fill-rule="evenodd" clip-rule="evenodd" d="M316.524 106.941C335.172 100.101 353.89 89.5635 361.999 71.7951C376.674 39.659 410.588 51.3439 403.773 84.1213C392.994 135.893 346 182.895 247.444 209.32C148.878 235.747 84.694 218.554 49.4992 179.108C27.2187 154.132 50.75 127.045 79.5168 147.534C95.4157 158.854 116.894 158.625 136.462 155.219C135.511 138.83 133.836 77.4542 161.489 70.04C175.619 66.2515 185.483 67.6174 193.713 68.757C199.604 69.5726 204.657 70.2724 209.838 68.8833C215.019 67.4943 219.045 64.3601 223.739 60.7066C230.297 55.6021 238.157 49.4839 252.287 45.6954C279.94 38.2811 309.157 92.272 316.524 106.941Z" fill="#664500"/>
<path d="M247.606 68.594C228.75 73.6496 224.557 85.2061 214.902 87.7947C205.247 90.3833 195.841 82.4731 176.985 87.5287C152.137 94.191 159.925 165.15 159.925 165.15C159.925 165.15 178.942 184.4 236.629 168.933C294.326 153.463 301.166 127.28 301.166 127.28C301.166 127.28 272.454 61.9318 247.606 68.594Z" fill="#825D0E"/>
<path d="M149.786 127.286C149.786 127.286 176.117 141.87 225.814 128.545C275.521 115.218 291.027 89.4171 291.027 89.4171L296.435 109.611C296.435 109.611 279.425 135.815 231.222 148.739C183.018 161.663 155.193 147.48 155.193 147.48L149.786 127.286Z" fill="#664500"/>
<path d="M151.249 399.123H50.9473V363.07H151.249V399.123ZM151.249 345.045H0.249023V308.992H151.249V345.045ZM151.249 290.966H76.2959V254.914H151.249V290.966Z" fill="#2B7FFF"/>
</svg>
